<svg version="1.2" xmlns="http://www.w3.org/2000/svg" viewBox="0 0 306 345" width="306" height="345">
	<title>cpp-svg</title>
	<style>
		.s0 { fill: #00599c } 
		.s1 { fill: #004482 } 
		.s2 { fill: #659ad2 } 
		.s3 { fill: #ffffff } 
	</style>
	<path id="Layer" class="s0" d="m153 172.2l149.1-86.1c2.4 4.1 3.9 8.8 3.9 13v146.1c0 4.2-1.5 8.9-3.9 13.1z"/>
	<path id="Layer" class="s1" d="m139.8 341.2l-126.6-73c-3.6-2.1-6.9-5.8-9.3-9.9l149.1-86.1 149.1 86.1c-2.4 4.1-5.7 7.8-9.4 9.9l-126.5 73c-7.2 4.2-19.2 4.2-26.5 0z"/>
	<path id="Layer" class="s2" d="m153 172.2l-149.1 86.1c-2.4-4.2-3.9-8.9-3.9-13.1v-146.1c0-8.4 6-18.7 13.2-22.9l126.5-73c7.3-4.3 19.3-4.3 26.5 0l126.5 73c3.7 2.1 7 5.7 9.4 9.9z"/>
	<g id="Layer">
		<path id="Layer" class="s3" d="m153 274.2c-56.2 0-102-45.8-102-102 0-56.3 45.8-102 102-102 36.3 0 70.1 19.5 88.3 50.9l-44.1 25.6c-9.1-15.7-26-25.5-44.2-25.5-28.1 0-51 22.9-51 51 0 28.1 22.9 51 51 51 18.2 0 35.1-9.8 44.2-25.5l44.1 25.5c-18.2 31.4-52 51-88.3 51z"/>
	</g>
</svg>