<svg version="1.2" xmlns="http://www.w3.org/2000/svg" viewBox="0 0 355 470" width="355" height="470">
	<title>jaava-svg</title>
	<style>
		.s0 { fill: #0074bd } 
		.s1 { fill: #ea2d2e } 
	</style>
	<g id="Layer">
		<path id="Layer" fill-rule="evenodd" class="s0" d="m247.9 371.2c-14.5-5.6-24.9-12.1-24.9-12.1-39.4 7.4-57.7 8-93.5 3.9-29.6-3.4-12.3-13.4-12.3-13.4-69.6 19.4 42.2 59.5 130.7 21.6z"/>
		<path id="Layer" fill-rule="evenodd" class="s0" d="m255.9 323c-11.3-4-18.6-11.3-18.6-11.3-52.3 10.1-82.5 9.8-120.7 5.8-29.6-3.1-10.3-17.4-10.3-17.4-76.5 25.4 42.6 54.2 149.6 22.9z"/>
		<path id="Layer" fill-rule="evenodd" class="s1" d="m278.3 92.3c-98.5 57.2-80.3 73.8-56.6 107.2 25.4 35.8-29.9 64.3-29.9 64.3 0 0 27.5-22.5 5.7-47.7-73.9-85.1 80.8-123.8 80.8-123.8z"/>
		<path id="Layer" fill-rule="evenodd" class="s0" d="m314.5 386.2c0 0 12.8 10.5-14 18.7-51.1 15.5-212.6 20.1-257.5 0.6-16.1-7 14.1-16.7 23.6-18.8 9.9-2.1 15.6-1.8 15.6-1.8-17.9-12.6-115.9 24.9-49.8 35.6 180.5 29.2 328.9-13.2 282.1-34.3z"/>
		<path id="Layer" fill-rule="evenodd" class="s0" d="m125.5 248.8c0 0-82.2 19.5-29.1 26.6 22.4 3 67 2.3 108.7-1.1 34-2.9 68.1-9 68.1-9 0 0-12 5.1-20.7 11.1-83.4 21.9-244.6 11.7-198.2-10.8 39.2-18.9 71.2-16.8 71.2-16.8z"/>
		<path id="Layer" fill-rule="evenodd" class="s0" d="m271.2 333.4c113.2-29.7 71.6-104.9 17.4-85.9-4.7 1.7-7.2 5.6-7.2 5.6 0 0 3-1.2 9.7-2.6 27.3-5.7 66.6 36.6-18.3 80.7-0.3 1-1.7 2.2-1.6 2.2z"/>
		<path id="Layer" fill-rule="evenodd" class="s1" d="m221.7 0c0 0 47 47-44.5 119.2-73.4 58-16.8 91-0.1 128.8-42.8-38.6-74.2-72.7-53.2-104.3 31-46.5 116.8-69.1 97.8-143.7z"/>
		<path id="Layer" fill-rule="evenodd" class="s0" d="m133.8 450.6c81.4 5.2 206.4-2.9 209.4-41.4 0 0-5.7 14.6-67.3 26.2-69.5 13.1-155.2 11.6-206 3.2 0 0 10.4 8.6 63.9 12z"/>
	</g>
</svg>