<svg version="1.2" xmlns="http://www.w3.org/2000/svg" viewBox="0 0 100 100" width="100" height="100">
	<title>unity-svg</title>
	<style>
		.s0 { fill: #110b09 } 
	</style>
	<path id="Layer" fill-rule="evenodd" class="s0" d="m99.5 39.6l-6.1 10.3 6.1 10.2-10.9 39.5-40.6-10.6-6-10.3h-12.2l-29.8-28.9 29.8-29 12.2 0.1 6-10.4 40.6-10.5zm-25.4 45.1l-17.8-30.1h-35.8l22.5 22.3zm-53.7-39.9h35.7l17.9-30-31.1 7.8zm71 4.9l-8.6-30.1-17.9 30.1 17.9 30.1zm103.1-5.6v26h-9.7v-24.5c0-4.6-3.3-7.3-7.7-7.3-4.7 0-8.1 3.8-8.1 9.2v22.5h-9.7v-39.8h9.5v5.4h0.2c2.7-4.2 6.4-6.5 11.8-6.5 8.3 0 13.8 6.3 13.7 15zm-49.9 9.1v-23h9.7v39.9h-9.3v-4.7h-0.3c-2.7 3.7-5.8 5.8-11.4 5.8-8.9 0-13.8-5.7-13.8-14.4v-26.6h9.7v24.8c0 4.7 2.9 7.2 7.3 7.2 5 0 8-3.6 8-9zm55.1-23h9.7v39.8h-9.7zm0-12.4h9.7v8h-9.7zm64.8 12.5h10.5l-14.1 40.8c-3 8.8-5.8 12-13.9 12h-6.2v-8.3h3.7c4.2 0 5.9-2.2 5.9-5.5 0-2.2-0.7-4.7-3-10.8l-10.7-28.3h10.4l6.5 18c1.3 3.6 2.6 8.7 2.6 8.7h0.3c0 0 1-5.1 2.2-8.7l5.8-18zm-33 31.9h2.5v7.7c0 0-1.1 0.2-5.3 0.2-5.2 0-10.8-2-10.8-9.5v-23.4h-5.5v-7h5.5v-12.4h9.7v12.5h6.2v7h-6.2v21c0 3 1.6 4 3.9 3.9z"/>
</svg>