<svg version="1.2" xmlns="http://www.w3.org/2000/svg" viewBox="0 0 725 715" width="725" height="715">
	<title>unrealengine-svg</title>
	<style>
		.s0 { fill: #000000 } 
	</style>
	<path id="Layer" fill-rule="evenodd" class="s0" d="m364.5 3c16.4 0.1 19.4 0.2 29.8 1.2 18 1.6 35.9 4.7 53.5 9 17.5 4.4 34.7 10.1 51.5 17.1 16.7 7 32.8 15.3 48.3 24.7 15.4 9.5 30.1 20.1 43.9 31.8q5.2 4.4 10.3 9 5 4.7 9.8 9.5 4.9 4.8 9.6 9.7 4.6 5 9.1 10.2 8.7 10.1 16.6 20.7 8 10.7 15.1 22 7.1 11.3 13.3 23 6.3 11.8 11.7 23.9c18.8 43.4 28.6 87.2 29.7 132.4 0.7 30.7-1.7 56.8-7.9 85.4-3.1 14.1-7 28-11.8 41.6-4.7 13.7-10.3 27-16.7 39.9-6.4 13-13.5 25.6-21.4 37.6-7.9 12.1-16.5 23.7-25.8 34.8q-4.8 5.6-9.8 10.9-5 5.4-10.2 10.6-5.2 5.2-10.6 10.2-5.4 5-11 9.8-6.8 5.8-14 11.2-7.1 5.5-14.5 10.5-7.5 5.1-15.1 9.8-7.7 4.7-15.6 9c-5.9 3.2-20 10.2-25.9 12.8q-13.7 6.1-27.9 11-14.3 5-28.9 8.7-14.6 3.7-29.4 6.2-14.9 2.5-29.9 3.7c-9.9 0.8-16.4 0.9-32 0.8-14.8-0.2-18.5-0.3-28.5-1.2q-18.8-1.8-37.3-5.5-18.6-3.7-36.6-9.4-18.1-5.7-35.4-13.2-17.4-7.6-33.8-16.9-10.3-5.9-20.2-12.4-9.9-6.5-19.3-13.7-9.5-7.2-18.4-15-8.9-7.8-17.3-16.2c-11.7-11.7-22.6-24.3-32.6-37.6-10-13.3-19.1-27.3-27.1-41.8-8-14.6-15-29.7-21-45.2-5.9-15.5-10.7-31.5-14.4-47.7q-1.6-7-2.9-14.1-1.3-7.1-2.3-14.2-1.1-7.2-1.8-14.4-0.8-7.1-1.2-14.4c-0.5-6.5-0.5-36.3 0-42.5 2.1-28.5 5.8-50.3 12.8-75.3q4.2-14.7 9.6-29 5.4-14.4 12-28.2 6.7-13.8 14.5-26.9 7.7-13.2 16.6-25.7c45.8-64.1 110.9-110.6 187-133.6 27.4-8.3 54.2-12.8 85.5-14.6 0.9 0 9.1 0 18.3 0zm21.1 45.3c-6-0.4-31.3-0.7-37.7-0.3q-8.8 0.5-17.6 1.5-8.8 0.9-17.5 2.4-8.7 1.5-17.3 3.4-8.6 2-17.1 4.4c-51.4 14.9-98.1 42.9-135.4 81.2-37.3 38.4-63.9 85.9-77.3 137.7-13.4 51.8-13 106.2 1.1 157.9 14.1 51.6 41.4 98.7 79.2 136.6q6.1 6.2 12.7 12 6.5 5.9 13.3 11.4 6.9 5.4 14 10.5 7.2 5 14.6 9.7 15.2 9.5 31.5 17.2 16.3 7.7 33.3 13.4 17 5.8 34.6 9.5 17.6 3.8 35.5 5.4 3.5 0.4 7.1 0.6 3.5 0.3 7.1 0.4 3.5 0.2 7.1 0.3 3.5 0 7.1 0 4.8 0 9.7-0.1 4.9-0.1 9.8-0.4 4.8-0.4 9.7-0.8 4.8-0.5 9.7-1.2c14.7-1.8 29.2-4.8 43.5-8.7 14.3-4 28.3-9 41.9-15 13.6-6 26.7-13 39.3-20.8 12.5-7.9 24.5-16.7 35.8-26.3q5.1-4.3 10-8.9 4.8-4.5 9.5-9.2 4.7-4.8 9.2-9.7 4.5-4.9 8.8-10.1c9.2-11.1 17.6-22.8 25.2-35.1 7.6-12.3 14.3-25.1 20.1-38.3 5.8-13.3 10.6-26.9 14.5-40.8 3.8-13.9 6.7-28.1 8.6-42.4 2.2-16.5 3.2-35.7 2.6-48.8-1-24.2-3.8-44.5-8.9-65-5.3-21.6-13-42.5-22.8-62.5-9.8-19.9-21.8-38.8-35.7-56.1-13.9-17.4-29.6-33.2-47-47.2-17.3-14-36-26.1-55.9-36-36.4-18.2-74.1-28.5-115.9-31.8z"/>
	<path id="Layer" class="s0" d="m319.9 142.8c-0.2 0.1-1.5 1.1-3.1 2.1-12 8-23.3 18.9-30.6 29.5q-1.7 2.5-3.3 5.1-1.5 2.6-2.8 5.3-1.2 2.7-2.3 5.6-1 2.8-1.7 5.7c-1.5 5.6-1.8 8.7-1.6 16.3 0.1 7.2 0.5 10.7 1.7 15.2 1.5 6 3.2 9.4 6.2 12.4q0.9 1 2 1.8 1 0.8 2.3 1.3 1.2 0.6 2.5 0.8 1.4 0.3 2.7 0.2c3.5 0 5.4-0.6 10.7-3.3 0.1-0.1 0.2 48.9 0.2 108.8v108.9l0.9 1.9q0.8 1.6 1.8 3.1 0.9 1.5 2 3 1.1 1.4 2.4 2.7 1.2 1.3 2.5 2.6c8.2 6.9 18.3 9.3 29.2 7 11.8-2.6 26.7-10.6 41.6-22.5l3.3-2.6-0.1-90.8v-90.9l-0.7-3.1q-0.7-2.9-1.6-5.8-0.9-2.8-2.1-5.5-1.1-2.8-2.5-5.4-1.5-2.6-3.1-5.1c-4.5-6.8-10.1-12.6-15.4-16l-1.7-1.1h4.9c15-0.3 29.8 3 37.2 8.3l1.2 0.9 3.9-4c26-27.1 63.7-50.2 102.3-62.8 9.6-3.2 24.2-7 29.8-7.8 1.1-0.2 1.1-0.2 0.7 0.3-0.2 0.2-1.3 1.6-2.4 2.9-10.1 12-25.5 31.3-34.9 43.9-10.6 13.9-17.5 24.2-23.1 33.6-2.1 3.6-2.2 3.7-2.5 6.3-0.5 3.3-0.8 9.3-1.3 20.5-0.4 12.9-0.4 88.5 0.2 119.5 0.6 34.8 1.1 54 1.6 62.8l0.2 2.9 1.1 1.3q0.8 0.7 1.6 1.4 0.8 0.7 1.7 1.2 0.9 0.6 1.8 1.1 0.9 0.5 1.9 0.8c11.7 4.5 27 0.6 45.5-11.5 11.1-7.2 21.2-15.7 34.8-29.1l7.1-7.1-1.2 2.5c-3.7 8.1-11.7 22.5-18.7 33.5q-4.3 6.8-8.8 13.4-4.6 6.6-9.4 13-4.9 6.4-9.9 12.6-5.1 6.2-10.5 12.2c-4.9 5.6-19.6 20.4-24.9 25q-4.7 4.3-9.6 8.3-4.9 4-10 7.9-5.1 3.8-10.4 7.4-5.3 3.5-10.7 6.9c-2.9 1.8-3.6 2.2-4 1.9l-14.5-12.3-26.7-22.6c-3.6-3-6.7-5.5-6.8-5.5-0.2 0-6.7 6.8-14.6 15.2-15.2 16.1-17 18-27.4 29.1-3.7 3.9-7.3 7.8-8.1 8.6l-1.4 1.5-6.2-0.8c-50-6.7-96.8-23.9-128-47.2-11.8-8.8-23.2-20.2-30.5-30.3-0.6-1-1.3-1.9-1.4-2-0.1-0.2 0.4-0.1 1.5 0.2q1.4 0.4 2.8 0.7 1.5 0.4 3 0.7 1.4 0.3 2.9 0.5 1.5 0.2 3 0.4c10.4 0.9 17.8-2.3 21-9q0.4-0.9 0.8-1.8 0.3-0.9 0.6-1.9 0.3-1 0.4-2 0.2-1 0.2-2c0.2-1.7 0.3-31.9 0.2-87.2l-0.1-84.7-0.5-1.9q-0.4-1.1-0.8-2.1-0.4-1-1-2-0.6-1-1.3-1.9-0.7-0.8-1.5-1.6c-3.2-3.3-6.3-4.7-11.4-5.3-5.3-0.7-12.2 0.9-19.6 4.5-11.8 5.8-24 15.7-39.3 32.1q-7.6 8-14.6 16.5-7.1 8.5-13.7 17.3-6.6 8.9-12.6 18.1-6 9.3-11.5 18.9c-3.3 5.7-8.4 15.5-9.4 18.1l-0.3 0.7-0.2-0.9c-0.1-0.5-0.3-2.2-0.5-3.8-1.9-20.1 2.4-45.1 11.8-69.3q15.4-39.7 49.3-77.8c33.2-37.3 62.9-64.3 92.6-84.3q8.2-5.6 16.8-10.5 8.6-5 17.5-9.4 8.8-4.3 18-8 9.2-3.8 18.6-6.8c5.7-1.9 11.7-3.7 15.1-4.6q0.3-0.1 0.6-0.2 0.4-0.1 0.7-0.2 0.3-0.1 0.6-0.2 0.4-0.1 0.7-0.2c0.5-0.3 0.9-0.3 0.6 0z"/>
	<path id="Layer" fill-rule="evenodd" class="s0" d="m595.2 186.2q0.3-0.3 0.5-0.5 0.3-0.2 0.5-0.5 0.3-0.2 0.6-0.4c0 0.1-1.3 10-2.9 22-1.7 11.9-3.4 24.7-3.9 28.3-0.5 3.6-1.5 10.8-2.2 15.9-0.7 5.1-1.2 9.3-1.1 9.4q0.8 0.1 1.7 0.1 0.8 0.1 1.6 0.1 0.9 0 1.7 0 0.8 0 1.6 0c5.2 0 6.6 0 6.5 0.3-0.1 0.3-0.5 3.3-1.8 14.7l-0.5 3.8h-13.2l-0.4 3.4c-0.3 1.9-0.9 6.5-1.4 10.3-0.5 3.8-0.9 6.9-0.9 7.1 0 0.3 0.7 0.4 2.5 0.4h2.4v0.8c0 0.4-0.2 1.8-0.4 3l-0.2 2.2-13.8 0.1c-12.9 0-13.7 0.1-13.7-0.4 0-0.6 3-24.8 3.2-26.1l0.2-0.8h-24.3c-13.3 0-24.2-0.1-24.2-0.2 0-0.1 0.6-4.4 1.2-9.4l1.2-9.3 22.3-31.8c12.2-17.6 22.4-32.1 22.7-32.3 0.4-0.4 1.1-0.5 5.1-0.5 11.1-0.1 16.4-1 21.7-3.7q1.1-0.5 2-1.1 1-0.6 1.9-1.3 0.9-0.7 1.8-1.5 0.8-0.7 1.6-1.6 0.2-0.3 0.4-0.5zm-26.3 31.2c-0.1-0.2-29.4 42.5-29.5 42.8-0.1 0.3 1.9 0.4 12.2 0.3h12.4l0.4-4c0.2-2.2 0.8-7 1.2-10.6 0.5-3.6 1.4-11.5 2.1-17.5 0.7-6 1.3-10.9 1.2-11z"/>
</svg>